<svg xmlns="http://www.w3.org/2000/svg" viewBox="0 0 152 152" enable-background="new 0 0 152 152"><path fill="#675144" d="M.6-.7h150.7v152h-150.7z"/><path stroke="#fff" stroke-width="4" stroke-linecap="round" stroke-linejoin="round" stroke-miterlimit="10" d="M109.2 114.2h-66.4c-2.6 0-4.8-2.1-4.8-4.8v-66.4c0-2.6 2.1-4.8 4.8-4.8h66.5c2.6 0 4.8 2.1 4.8 4.8v66.5c-.1 2.6-2.2 4.7-4.9 4.7zM95.5 68.9h18.5M38.2 68.9h18.7" fill="none"/><circle stroke="#fff" stroke-width="4" stroke-linecap="round" stroke-linejoin="round" stroke-miterlimit="10" cx="76" cy="79.1" r="21.5" fill="none"/><circle stroke="#fff" stroke-width="4" stroke-linecap="round" stroke-linejoin="round" stroke-miterlimit="10" cx="76" cy="79.1" r="21.5" fill="none"/><path fill="#fff" d="M100 47.9c2.5 0 4.5 2 4.5 4.5v.5c0 2.5-2 4.5-4.5 4.5h-.5c-2.5 0-4.5-2-4.5-4.5v-.5c0-2.5 2-4.5 4.5-4.5h.5m0-2.4h-.5c-3.8 0-6.9 3.1-6.9 6.9v.5c0 3.8 3.1 6.9 6.9 6.9h.5c3.8 0 6.9-3.1 6.9-6.9v-.5c0-3.8-3.1-6.9-6.9-6.9z"/></svg>