<svg xmlns="http://www.w3.org/2000/svg" viewBox="0 0 312 312" fill-rule="evenodd" clip-rule="evenodd">
    <path d="M156 0c86.156 0 156 69.844 156 156s-69.844 156-156 156-156-69.844-156-156 69.844-156 156-156z" fill="#fff"/>
    <clipPath id="a">
        <path d="M156 6c-82.845 0-150 67.155-150 150s67.155 150 150 150 150-67.155 150-150-67.16-150-150-150zm27.788 201.775l-.192 70.012-140.293-81.513 69.421-39.823-68.659-26.808 126.687-101.372 13.3 87.247 49.8-39.055 22.877 160.63z"/>
    </clipPath>
    <path d="M156 6c82.843 0 150 67.157 150 150s-67.157 150-150 150-150-67.157-150-150 67.157-150 150-150z" fill="#fff" clip-path="url(#a)"/>
    <clipPath id="b">
        <path d="M156 6c-82.845 0-150 67.155-150 150s67.155 150 150 150 150-67.155 150-150-67.16-150-150-150zm27.788 201.775l-.192 70.012-140.293-81.513 69.421-39.823-68.659-26.808 126.687-101.372 13.3 87.247 49.8-39.055 22.877 160.63z"/>
    </clipPath>
    <path d="M156 6c82.843 0 150 67.157 150 150s-67.157 150-150 150-150-67.157-150-150 67.157-150 150-150z" fill="#3b454f" fill-opacity=".6" clip-path="url(#b)"/>
    <clipPath id="c">
        <path d="M156 6c-82.845 0-150 67.155-150 150s67.155 150 150 150 150-67.155 150-150-67.16-150-150-150zm27.788 201.775l-.192 70.012-140.293-81.513 69.421-39.823-68.659-26.808 126.687-101.372 13.3 87.247 49.8-39.055 22.877 160.63z"/>
    </clipPath>
    <path d="M395.031 292.663l-288.851-116.077 244.953-192.095z" fill="#3b454f" fill-opacity=".4" clip-path="url(#c)"/>
    <clipPath id="d">
        <path d="M156 6c-82.845 0-150 67.155-150 150s67.155 150 150 150 150-67.155 150-150-67.16-150-150-150zm27.788 201.775l-.192 70.012-140.293-81.513 69.421-39.823-68.659-26.808 126.687-101.372 13.3 87.247 49.8-39.055 22.877 160.63z"/>
    </clipPath>
    <path d="M195.206 188.667l-268.795-104.971 225.311-180.282z" fill="#3b454f" fill-opacity=".4" clip-path="url(#d)"/>
    <clipPath id="e">
        <path d="M156 6c-82.845 0-150 67.155-150 150s67.155 150 150 150 150-67.155 150-150-67.16-150-150-150zm27.788 201.775l-.192 70.012-140.293-81.513 69.421-39.823-68.659-26.808 126.687-101.372 13.3 87.247 49.8-39.055 22.877 160.63z"/>
    </clipPath>
    <path d="M183.228 411.946l-256.298-148.911 257.112-147.496z" fill="#3b454f" fill-opacity=".4" clip-path="url(#e)"/>
    <clipPath id="f">
        <path d="M156 6c-82.845 0-150 67.155-150 150s67.155 150 150 150 150-67.155 150-150-67.16-150-150-150zm27.788 201.775l-.192 70.012-140.293-81.513 69.421-39.823-68.659-26.808 126.687-101.372 13.3 87.247 49.8-39.055 22.877 160.63z"/>
    </clipPath>
    <path d="M184.052 115.518l-.083.068-71.245 40.87 12.771 4.983-19.315 15.147 77.608 31.189.062-23.541 11.356 4.433z" fill="#3b454f" fill-opacity=".4" clip-path="url(#f)"/>
    <clipPath id="g">
        <path d="M156 6c-82.845 0-150 67.155-150 150s67.155 150 150 150 150-67.155 150-150-67.16-150-150-150zm27.788 201.775l-.192 70.012-140.293-81.513 69.421-39.823-68.659-26.808 126.687-101.372 13.3 87.247 49.8-39.055 22.877 160.63z"/>
    </clipPath>
    <path d="M183.85 114.507l-.005-.026-.13.094z" fill="#3b454f" fill-opacity=".4" clip-path="url(#g)"/>
    <clipPath id="h">
        <path d="M156 6c-82.845 0-150 67.155-150 150s67.155 150 150 150 150-67.155 150-150-67.16-150-150-150zm27.788 201.775l-.192 70.012-140.293-81.513 69.421-39.823-68.659-26.808 126.687-101.372 13.3 87.247 49.8-39.055 22.877 160.63z"/>
    </clipPath>
    <path d="M183.861 114.507h-.011l.005.047z" fill="#3b454f" fill-opacity=".4" clip-path="url(#h)"/>
    <clipPath id="i">
        <path d="M156 6c-82.845 0-150 67.155-150 150s67.155 150 150 150 150-67.155 150-150-67.16-150-150-150zm27.788 201.775l-.192 70.012-140.293-81.513 69.421-39.823-68.659-26.808 126.687-101.372 13.3 87.247 49.8-39.055 22.877 160.63z"/>
    </clipPath>
    <path d="M182.378 115.674h-.006v.047z" fill="#3b454f" fill-opacity=".4" clip-path="url(#i)"/>
    <clipPath id="j">
        <path d="M156 6c-82.845 0-150 67.155-150 150s67.155 150 150 150 150-67.155 150-150-67.16-150-150-150zm27.788 201.775l-.192 70.012-140.293-81.513 69.421-39.823-68.659-26.808 126.687-101.372 13.3 87.247 49.8-39.055 22.877 160.63z"/>
    </clipPath>
    <path d="M183.969 115.586l164.327-128.87-194.769-70.323 30.442 199.193" fill="#3b454f" fill-opacity=".4" clip-path="url(#j)"/>
    <clipPath id="k">
        <path d="M156 6c-82.845 0-150 67.155-150 150s67.155 150 150 150 150-67.155 150-150-67.16-150-150-150zm27.788 201.775l-.192 70.012-140.293-81.513 69.421-39.823-68.659-26.808 126.687-101.372 13.3 87.247 49.8-39.055 22.877 160.63z"/>
    </clipPath>
    <path d="M233.852 76.463l22.877 160.625" fill="#3b454f" fill-opacity=".4" clip-path="url(#k)"/>
    <clipPath id="l">
        <path d="M156 6c-82.845 0-150 67.155-150 150s67.155 150 150 150 150-67.155 150-150-67.16-150-150-150zm27.788 201.775l-.192 70.012-140.293-81.513 69.421-39.823-68.659-26.808 126.687-101.372 13.3 87.247 49.8-39.055 22.877 160.63z"/>
    </clipPath>
    <path d="M280.421 403.442l-70.261-493.328 261.935 170.586z" fill="#3b454f" fill-opacity=".35" clip-path="url(#l)"/>
    <clipPath id="m">
        <path d="M156 6c-82.845 0-150 67.155-150 150s67.155 150 150 150 150-67.155 150-150-67.16-150-150-150zm27.788 201.775l-.192 70.012-140.293-81.513 69.421-39.823-68.659-26.808 126.687-101.372 13.3 87.247 49.8-39.055 22.877 160.63z"/>
    </clipPath>
    <path d="M-102.258 246.857l388.896-311.558-307.721-54.928z" fill="#3b454f" fill-opacity=".3" clip-path="url(#m)"/>
    <clipPath id="n">
        <path d="M156 6c-82.845 0-150 67.155-150 150s67.155 150 150 150 150-67.155 150-150-67.16-150-150-150zm27.788 201.775l-.192 70.012-140.293-81.513 69.421-39.823-68.659-26.808 126.687-101.372 13.3 87.247 49.8-39.055 22.877 160.63z"/>
    </clipPath>
    <path d="M-112.759 105.459l430.768 250.491-296.184 99.92z" fill="#3b454f" fill-opacity=".5" clip-path="url(#n)"/>
    <clipPath id="o">
        <path d="M156 6c-82.845 0-150 67.155-150 150s67.155 150 150 150 150-67.155 150-150-67.16-150-150-150zm27.788 201.775l-.192 70.012-140.293-81.513 69.421-39.823-68.659-26.808 126.687-101.372 13.3 87.247 49.8-39.055 22.877 160.63z"/>
    </clipPath>
    <path d="M183.788 207.775l-.56 204.171 127.693-119.283-29.878-45.806-97.255-39.082" fill="#3b454f" fill-opacity=".46" clip-path="url(#o)"/>
    <clipPath id="p">
        <path d="M156 6c-82.845 0-150 67.155-150 150s67.155 150 150 150 150-67.155 150-150-67.16-150-150-150zm27.788 201.775l-.192 70.012-140.293-81.513 69.421-39.823-68.659-26.808 126.687-101.372 13.3 87.247 49.8-39.055 22.877 160.63z"/>
    </clipPath>
    <path d="M43.422 196.284l-38.247-22.25-3.241 46.02z" fill="#3b454f" clip-path="url(#p)"/>
    <clipPath id="q">
        <path d="M156 6c-82.845 0-150 67.155-150 150s67.155 150 150 150 150-67.155 150-150-67.16-150-150-150zm27.788 201.775l-.192 70.012-140.293-81.513 69.421-39.823-68.659-26.808 126.687-101.372 13.3 87.247 49.8-39.055 22.877 160.63z"/>
    </clipPath>
    <path d="M44.065 129.716l-46.341-18.227 5.393 50.946z" fill="#fff" fill-opacity=".01" clip-path="url(#q)"/>
    <clipPath id="r">
        <path d="M156 6c-82.845 0-150 67.155-150 150s67.155 150 150 150 150-67.155 150-150-67.16-150-150-150zm27.788 201.775l-.192 70.012-140.293-81.513 69.421-39.823-68.659-26.808 126.687-101.372 13.3 87.247 49.8-39.055 22.877 160.63z"/>
    </clipPath>
    <path d="M233.852 76.484l46.667-36.618-55.28-23.878z" fill="#fff" fill-opacity=".3" clip-path="url(#r)"/>
    <clipPath id="s">
        <path d="M156 6c-82.845 0-150 67.155-150 150s67.155 150 150 150 150-67.155 150-150-67.16-150-150-150zm27.788 201.775l-.192 70.012-140.293-81.513 69.421-39.823-68.659-26.808 126.687-101.372 13.3 87.247 49.8-39.055 22.877 160.63z"/>
    </clipPath>
    <path d="M170.638 28.364l41.845-33.658-47.673-4.465z" fill="#3b454f" fill-opacity=".6" clip-path="url(#s)"/>
    <path d="M195.206 188.667l-11.154-73.149-.083.068-71.245 40.87 12.771 4.983-19.315 15.147 77.608 31.189.062-23.541z" fill="#3b454f" fill-opacity=".94"/>
</svg>
