<svg xmlns="http://www.w3.org/2000/svg" viewBox="96 96 128 128" enable-background="new 96 96 128 128"><path fill="#5C8FCB" d="M96 96h128v128h-128z"/><path stroke="#fff" stroke-width="2" stroke-linecap="round" stroke-linejoin="round" stroke-miterlimit="10" d="M137.7 166.2c-7-1.4-12.3-7.6-12.3-15.1v-.2m6.9 2c-4.1-2.8-6.8-7.5-6.8-12.8 0-2.8.7-5.5 2.1-7.7 7.6 9.2 19 15.4 31.7 16-.2-1.2-.4-2.3-.4-3.5 0-8.5 6.9-15.3 15.3-15.3 4.4 0 8.4 1.9 11.2 4.8 3.5-.7 6.8-2 9.7-3.7l-7.4 8.4 9.5-2.3c-2.1 3-4.7 5.7-7.7 8v2c-.1 20.4-15.6 43.8-43.8 43.8-8.7 0-16.7-2.6-23.5-6.9 1.2.1 2.5.2 3.6.2 7.3 0 13.8-2.5 19.1-6.6-6.7-.1-12.4-4.6-14.4-10.6" fill="none"/></svg>